<?xml version="1.0" encoding="UTF-8" standalone="no"?>
<!-- Generator: Adobe Illustrator 16.0.0, SVG Export Plug-In . SVG Version: 6.00 Build 0)  -->

<svg
   xmlns:dc="http://purl.org/dc/elements/1.1/"
   xmlns:cc="http://creativecommons.org/ns#"
   xmlns:rdf="http://www.w3.org/1999/02/22-rdf-syntax-ns#"
   xmlns:svg="http://www.w3.org/2000/svg"
   xmlns="http://www.w3.org/2000/svg"
   xmlns:sodipodi="http://sodipodi.sourceforge.net/DTD/sodipodi-0.dtd"
   xmlns:inkscape="http://www.inkscape.org/namespaces/inkscape"
   version="1.1"
   id="Capa_1"
   x="0px"
   y="0px"
   width="512px"
   height="512px"
   viewBox="0 0 97.75 97.75"
   style="enable-background:new 0 0 97.75 97.75;"
   xml:space="preserve"
   inkscape:version="0.91 r13725"
   sodipodi:docname="ok.svg"><metadata
     id="metadata45"><rdf:RDF><cc:Work
         rdf:about=""><dc:format>image/svg+xml</dc:format><dc:type
           rdf:resource="http://purl.org/dc/dcmitype/StillImage" /><dc:title></dc:title></cc:Work></rdf:RDF></metadata><defs
     id="defs43" /><sodipodi:namedview
     pagecolor="#ffffff"
     bordercolor="#666666"
     borderopacity="1"
     objecttolerance="10"
     gridtolerance="10"
     guidetolerance="10"
     inkscape:pageopacity="0"
     inkscape:pageshadow="2"
     inkscape:window-width="1440"
     inkscape:window-height="849"
     id="namedview41"
     showgrid="false"
     inkscape:zoom="0.4609375"
     inkscape:cx="288.54237"
     inkscape:cy="256"
     inkscape:window-x="0"
     inkscape:window-y="0"
     inkscape:window-maximized="1"
     inkscape:current-layer="g3" /><g
     id="g3"><circle
       style="fill:#ffffff;fill-opacity:1;stroke:#ffac00;stroke-width:0.19053614;stroke-miterlimit:4;stroke-dasharray:none;stroke-opacity:1"
       id="path4173"
       cx="50.117584"
       cy="49.289192"
       r="41.005299" /><g
       id="g5"><path
         d="M48.921,40.507c4.667-0.017,8.384-3.766,8.367-8.443c-0.017-4.679-3.742-8.402-8.411-8.406    c-4.708-0.005-8.468,3.787-8.432,8.508C40.48,36.826,44.239,40.524,48.921,40.507z"
         fill="#ee8208"
         id="path7" /><path
         d="M48.875,0C21.882,0,0,21.883,0,48.875S21.882,97.75,48.875,97.75S97.75,75.867,97.75,48.875S75.868,0,48.875,0z     M48.945,14.863c9.52,0.026,17.161,7.813,17.112,17.438c-0.048,9.403-7.814,17.024-17.318,16.992    c-9.407-0.032-17.122-7.831-17.066-17.253C31.726,22.515,39.445,14.837,48.945,14.863z M68.227,56.057    c-2.105,2.161-4.639,3.725-7.453,4.816c-2.66,1.031-5.575,1.55-8.461,1.896c0.437,0.474,0.642,0.707,0.914,0.979    c3.916,3.937,7.851,7.854,11.754,11.802c1.33,1.346,1.607,3.014,0.875,4.577c-0.799,1.71-2.592,2.834-4.351,2.713    c-1.114-0.077-1.983-0.63-2.754-1.407c-2.956-2.974-5.968-5.895-8.862-8.925c-0.845-0.882-1.249-0.714-1.994,0.052    c-2.973,3.062-5.995,6.075-9.034,9.072c-1.365,1.346-2.989,1.59-4.573,0.82c-1.683-0.814-2.753-2.533-2.671-4.262    c0.058-1.166,0.632-2.06,1.434-2.858c3.877-3.869,7.742-7.75,11.608-11.628c0.257-0.257,0.495-0.53,0.868-0.93    c-5.273-0.551-10.028-1.849-14.099-5.032c-0.506-0.396-1.027-0.778-1.487-1.222c-1.783-1.711-1.962-3.672-0.553-5.69    c1.207-1.728,3.231-2.19,5.336-1.197c0.408,0.191,0.796,0.433,1.168,0.689c7.586,5.213,18.008,5.356,25.624,0.233    c0.754-0.576,1.561-1.05,2.496-1.289c1.816-0.468,3.512,0.201,4.486,1.791C69.613,52.874,69.6,54.646,68.227,56.057z"
         fill="#ee8208"
         id="path9" /></g></g><g
     id="g11" /><g
     id="g13" /><g
     id="g15" /><g
     id="g17" /><g
     id="g19" /><g
     id="g21" /><g
     id="g23" /><g
     id="g25" /><g
     id="g27" /><g
     id="g29" /><g
     id="g31" /><g
     id="g33" /><g
     id="g35" /><g
     id="g37" /><g
     id="g39" /></svg>