<?xml version="1.0" encoding="UTF-8" standalone="no"?>
<svg
   xmlns:dc="http://purl.org/dc/elements/1.1/"
   xmlns:cc="http://creativecommons.org/ns#"
   xmlns:rdf="http://www.w3.org/1999/02/22-rdf-syntax-ns#"
   xmlns:svg="http://www.w3.org/2000/svg"
   xmlns="http://www.w3.org/2000/svg"
   xmlns:sodipodi="http://sodipodi.sourceforge.net/DTD/sodipodi-0.dtd"
   xmlns:inkscape="http://www.inkscape.org/namespaces/inkscape"
   version="1.1"
   width="524.40948"
   height="113.3858"
   id="svg2"
   inkscape:version="0.91 r13725"
   viewBox="0 0 524.40948 113.3858"
   sodipodi:docname="velcome2.svg">
  <metadata
     id="metadata13">
    <rdf:RDF>
      <cc:Work
         rdf:about="">
        <dc:format>image/svg+xml</dc:format>
        <dc:type
           rdf:resource="http://purl.org/dc/dcmitype/StillImage" />
        <dc:title></dc:title>
      </cc:Work>
    </rdf:RDF>
  </metadata>
  <defs
     id="defs11" />
  <sodipodi:namedview
     pagecolor="#ffffff"
     bordercolor="#666666"
     borderopacity="1"
     objecttolerance="10"
     gridtolerance="10"
     guidetolerance="10"
     inkscape:pageopacity="0"
     inkscape:pageshadow="2"
     inkscape:window-width="745"
     inkscape:window-height="480"
     id="namedview9"
     showgrid="false"
     fit-margin-top="0"
     fit-margin-left="0"
     fit-margin-right="0"
     fit-margin-bottom="0"
     inkscape:zoom="0.31595585"
     inkscape:cx="265.03939"
     inkscape:cy="56.692913"
     inkscape:window-x="0"
     inkscape:window-y="0"
     inkscape:window-maximized="0"
     inkscape:current-layer="svg2" />
  <g
     id="Layer1000"
     transform="translate(-155.9055,-240.9449)">
    <path
       d="m 155.9055,354.3307 524.4095,0 0,-113.3858 -524.4095,0 0,113.3858 z"
       style="fill:#ffec00;fill-rule:evenodd"
       id="path5"
       inkscape:connector-curvature="0" />
    <path
       d="m 418.1335,291.7695 -25.1637,0 c 0.2199,-4.3585 3.05,-11.9809 12.8511,-11.9809 7.5175,0 10.8936,4.1369 12.3126,11.9809 z m 120.2882,6.1013 c 0,8.932 -3.1567,17.9734 -13.7226,17.9734 -10.4558,0 -13.6165,-9.0414 -13.6165,-17.9734 0,-9.0408 3.1607,-18.0822 13.6165,-18.0822 10.5659,0 13.7226,9.0414 13.7226,18.0822 z m 13.3285,28.1004 15.4647,0 0,-32.6766 c 0,-11.0019 7.4069,-12.9606 10.4587,-12.9606 9.8022,0 9.3673,7.5152 9.3673,14.0519 l 0,31.5853 15.4687,0 0,-31.3716 c 0,-7.0753 1.6328,-14.2656 10.3465,-14.2656 8.8231,0 9.4762,6.2096 9.4762,13.7242 l 0,31.913 15.4692,0 0,-37.6872 c 0,-14.5973 -8.6094,-20.1532 -20.5886,-20.1532 -7.8452,0 -13.7242,4.4691 -16.9954,9.3714 -3.0501,-6.7533 -9.3657,-9.3714 -16.4466,-9.3714 -7.2964,0 -13.1783,3.3778 -17.2091,9.152 l -0.22,0 0,-7.6252 -14.5916,0 0,15.7918 c -4.0916,-10.7762 -13.815,-17.3186 -27.0511,-17.3186 -12.3891,0 -21.7207,5.8043 -26.1796,15.48 -3.4702,-10.4059 -14.002,-15.48 -25.331,-15.48 -13.6788,0 -22.9765,7.2443 -26.8004,18.2257 l 0,-29.9118 -15.4647,0 0,27.9598 c -3.977,-9.4887 -12.2343,-16.2737 -24.6631,-16.2737 -8.5822,0 -15.7947,3.24 -20.8505,8.6003 l 2.7371,-7.0412 -16.0203,0 -14.9646,38.4469 -0.2183,0.2296 -14.9426,-38.6765 -16.0146,-0.006 21.8835,56.3154 18.3929,0 11.2467,-28.9367 -0.008,0.8079 c 0,17.4263 11.0041,29.6255 28.7592,29.6255 11.2847,0 19.8272,-4.4363 24.6631,-14.6795 l 0,13.1544 15.4647,0 0,-15.9551 c 3.9555,10.6328 13.6278,17.4802 26.4745,17.4802 12.274,0 21.4781,-5.607 25.3916,-16.0243 4.3455,9.9893 13.8036,16.0243 26.4449,16.0243 13.2361,0 22.9595,-6.5384 27.0511,-17.2659 l 0,15.7408 z m -120.8268,-24.3966 0,6.9686 -11.9185,0 c -0.9791,3.4855 -5.9953,7.301 -12.1987,7.301 -8.6065,0 -13.4027,-4.4686 -13.8364,-14.2696 l 37.9536,0 z m 65.609,-12.0926 c -0.6026,2.609 -0.9161,5.4113 -0.9161,8.3888 0,2.2808 0.187,4.4634 0.5487,6.5339 l -11.105,0 c -0.9791,6.8632 -5.1222,11.4395 -12.3108,11.4395 -9.6934,0 -12.8512,-9.6991 -12.8512,-17.7551 0,-8.28 3.2701,-18.3005 13.1783,-18.3005 6.4295,0 10.4587,3.3772 11.4383,9.6934 l 12.0178,0 z"
       style="fill:#1b1918;fill-rule:evenodd"
       id="path7"
       inkscape:connector-curvature="0" />
  </g>
</svg>
